<?xml version="1.0" encoding="UTF-8"?>
<svg version="1.1" xmlns="http://www.w3.org/2000/svg" width="1197" height="1200">
<path d="M0 0 C7.99065114 -0.23228637 15.98354332 1.11215177 23.890625 2.12890625 C23.890625 2.78890625 23.890625 3.44890625 23.890625 4.12890625 C25.128125 4.27328125 26.365625 4.41765625 27.640625 4.56640625 C30.45566999 4.91579127 33.1607747 5.33269991 35.890625 6.12890625 C35.890625 6.78890625 35.890625 7.44890625 35.890625 8.12890625 C36.65375 8.27328125 37.416875 8.41765625 38.203125 8.56640625 C40.890625 9.12890625 40.890625 9.12890625 43.890625 10.12890625 C43.890625 10.78890625 43.890625 11.44890625 43.890625 12.12890625 C44.9734375 12.53109375 44.9734375 12.53109375 46.078125 12.94140625 C48.88828883 14.12791987 51.37479057 15.40376264 53.890625 17.12890625 C53.890625 17.78890625 53.890625 18.44890625 53.890625 19.12890625 C54.633125 19.37640625 55.375625 19.62390625 56.140625 19.87890625 C59.12085587 21.23355664 60.78981752 22.63906035 62.890625 25.12890625 C62.890625 25.78890625 62.890625 26.44890625 62.890625 27.12890625 C63.880625 27.45890625 64.870625 27.78890625 65.890625 28.12890625 C67.8984375 30.4921875 67.8984375 30.4921875 70.015625 33.44140625 C70.71945312 34.40691406 71.42328125 35.37242188 72.1484375 36.3671875 C73.65650711 38.75778215 74.45918668 40.3768527 74.890625 43.12890625 C75.550625 43.12890625 76.210625 43.12890625 76.890625 43.12890625 C78.14727478 46.03490886 78.890625 47.92495209 78.890625 51.12890625 C79.550625 51.12890625 80.210625 51.12890625 80.890625 51.12890625 C81.6917472 53.70962051 82.48149057 56.29302474 83.265625 58.87890625 C83.48734375 59.58917969 83.7090625 60.29945312 83.9375 61.03125 C88.06808678 74.75937666 88.15781855 88.07135032 88.0859375 102.27807617 C88.08209414 104.51151903 88.0791689 106.74496362 88.0770874 108.97840881 C88.07078978 113.76805547 88.05828984 118.55763069 88.04095459 123.34724998 C88.01381003 130.92439099 88.00210095 138.50150867 87.99267578 146.07868958 C87.97803707 156.70311234 87.95783064 167.32750502 87.93164062 177.9519043 C87.929985 178.62461765 87.92832938 179.29733101 87.92662358 179.99042962 C87.91482197 184.76575566 87.902752 189.54108102 87.890625 194.31640625 C87.87676277 199.77661086 87.86302942 205.23681576 87.84960938 210.69702148 C87.84795312 211.36981517 87.84629687 212.04260885 87.84459043 212.73579022 C87.8171868 223.96739795 87.79776997 235.19900663 87.78378868 246.43064004 C87.77383741 253.95981309 87.7541392 261.48887806 87.72692871 269.01800764 C87.71199194 273.70231266 87.70537482 278.38660292 87.7009964 283.07092857 C87.69725823 285.2392821 87.690068 287.4076329 87.67913055 289.57596207 C87.66464625 292.54124443 87.66262522 295.50629149 87.66357422 298.47160339 C87.65278934 299.7507062 87.65278934 299.7507062 87.64178658 301.05564946 C87.66040604 306.50684587 88.02009318 311.95917273 89.890625 317.12890625 C90.550625 317.45890625 91.210625 317.78890625 91.890625 318.12890625 C92.79318839 319.35915189 93.66376945 320.61302035 94.515625 321.87890625 C99.38306082 328.48302427 106.05750369 331.89959384 113.890625 334.12890625 C117.16284185 334.53529683 120.39470601 334.54154928 123.68910217 334.52090454 C124.64654986 334.5268458 125.60399755 334.53278706 126.59045881 334.53890836 C129.7831633 334.55515572 132.97547608 334.55025827 136.16821289 334.54541016 C138.46342919 334.55279288 140.75864156 334.56149872 143.05384827 334.57142639 C149.27680708 334.59473071 155.49966611 334.59989788 161.72266316 334.60208559 C168.23770434 334.60775087 174.75268074 334.63102758 181.26768494 334.65267944 C192.20685163 334.68682143 203.1459975 334.7113013 214.08520508 334.72753906 C225.33228797 334.744274 236.57935166 334.76445732 247.82641602 334.79101562 C248.51931337 334.79264905 249.21221073 334.79428247 249.92610497 334.79596539 C257.49435 334.81394106 265.06259058 334.83329846 272.6308279 334.85426903 C273.62917984 334.85703116 273.62917984 334.85703116 274.6477005 334.85984909 C277.9663529 334.86905318 281.28500495 334.87836331 284.60365671 334.88779581 C292.36080234 334.90927911 300.11792881 334.92455379 307.87509739 334.9346354 C312.69916614 334.94165622 317.52322117 334.9525368 322.3472805 334.96427727 C324.58418622 334.96883267 326.82109616 334.97168224 329.05800629 334.97270012 C332.11174295 334.97427427 335.16540903 334.98186226 338.21913147 334.99087524 C339.54608405 334.98927287 339.54608405 334.98927287 340.89984375 334.98763812 C347.90961946 335.01846605 354.26581697 335.70830332 360.890625 338.12890625 C362.18226563 338.58136719 362.18226563 338.58136719 363.5 339.04296875 C371.59056247 341.90746519 378.71499633 345.4424976 385.890625 350.12890625 C386.51453125 350.53238281 387.1384375 350.93585938 387.78125 351.3515625 C391.90075864 354.13670856 394.78200276 357.20222553 397.890625 361.12890625 C399.0971875 362.30453125 399.0971875 362.30453125 400.328125 363.50390625 C405.35121063 368.64950617 412.890625 376.63802967 412.890625 384.12890625 C413.550625 384.12890625 414.210625 384.12890625 414.890625 384.12890625 C415.08398438 384.78117187 415.27734375 385.4334375 415.4765625 386.10546875 C416.6028104 389.88564734 417.72517041 393.65092631 419.015625 397.37890625 C421.30237325 404.56582933 421.07406055 411.79158484 421.078125 419.25390625 C421.09037109 420.4140625 421.10261719 421.57421875 421.11523438 422.76953125 C421.12807054 430.41988403 420.40262245 437.62974157 418.890625 445.12890625 C418.230625 445.12890625 417.570625 445.12890625 416.890625 445.12890625 C416.74625 446.22203125 416.601875 447.31515625 416.453125 448.44140625 C415.890625 452.12890625 415.890625 452.12890625 414.890625 455.12890625 C414.230625 455.12890625 413.570625 455.12890625 412.890625 455.12890625 C412.74625 455.89203125 412.601875 456.65515625 412.453125 457.44140625 C411.890625 460.12890625 411.890625 460.12890625 410.890625 463.12890625 C410.230625 463.12890625 409.570625 463.12890625 408.890625 463.12890625 C408.6225 463.85078125 408.354375 464.57265625 408.078125 465.31640625 C405.83625722 470.62609309 403.05296885 474.15575985 398.890625 478.12890625 C398.39820313 478.65355469 397.90578125 479.17820312 397.3984375 479.71875 C386.03286069 491.70970544 371.81245187 499.77080564 355.55859375 502.62109375 C352.97914758 502.8529099 352.97914758 502.8529099 351.890625 504.12890625 C344.441624 505.23555226 336.90791086 505.27247206 329.39401245 505.25588989 C327.73794234 505.25822988 327.73794234 505.25822988 326.04841626 505.26061714 C322.37715294 505.26458132 318.70593154 505.26145528 315.03466797 505.25830078 C312.39071025 505.2596569 309.74675534 505.26140213 307.10279846 505.26361084 C300.68234141 505.26804322 294.26189608 505.26710309 287.84143858 505.2641982 C282.61682686 505.26193302 277.39221842 505.26163647 272.16760635 505.26272202 C271.04902003 505.26295186 271.04902003 505.26295186 269.907836 505.26318636 C268.3924833 505.26350611 266.87713061 505.26383033 265.36177792 505.26415895 C251.17030657 505.26700664 236.9788417 505.26373849 222.78737141 505.25835858 C210.64242405 505.25389672 198.49748625 505.25466276 186.35253906 505.25927734 C172.21858663 505.26464522 158.08463988 505.26672622 143.95068657 505.26366508 C142.4393038 505.26334657 140.92792102 505.2630322 139.41653824 505.26272202 C138.67310133 505.26256774 137.92966442 505.26241346 137.16369911 505.26225451 C131.95576907 505.26139558 126.74784266 505.26283886 121.53991318 505.26520157 C115.17776749 505.26802466 108.81563412 505.26720913 102.45348983 505.26192082 C99.21492323 505.25931652 95.97638099 505.25877285 92.73781395 505.26156998 C79.41820145 505.27200657 66.17528998 505.15159512 52.890625 504.12890625 C52.890625 503.46890625 52.890625 502.80890625 52.890625 502.12890625 C51.281875 502.19078125 51.281875 502.19078125 49.640625 502.25390625 C43.95958877 502.27434163 38.45767307 501.16808856 32.890625 500.12890625 C32.890625 499.46890625 32.890625 498.80890625 32.890625 498.12890625 C31.653125 497.98453125 30.415625 497.84015625 29.140625 497.69140625 C26.32558001 497.34202123 23.6204753 496.92511259 20.890625 496.12890625 C20.890625 495.46890625 20.890625 494.80890625 20.890625 494.12890625 C19.983125 494.06703125 19.075625 494.00515625 18.140625 493.94140625 C12.38295498 493.15788827 7.15448124 490.47127906 1.890625 488.12890625 C1.890625 487.46890625 1.890625 486.80890625 1.890625 486.12890625 C-0.419375 485.46890625 -2.729375 484.80890625 -5.109375 484.12890625 C-5.109375 483.46890625 -5.109375 482.80890625 -5.109375 482.12890625 C-7.089375 481.46890625 -9.069375 480.80890625 -11.109375 480.12890625 C-11.109375 479.46890625 -11.109375 478.80890625 -11.109375 478.12890625 C-11.79 477.88140625 -12.470625 477.63390625 -13.171875 477.37890625 C-19.31715855 474.76389198 -23.51844103 471.94378822 -28.109375 467.12890625 C-29.39377986 466.01630077 -30.68612113 464.91282027 -31.984375 463.81640625 C-36.11212409 460.22772887 -39.61077827 456.3229644 -43.109375 452.12890625 C-44.35654297 450.66130859 -44.35654297 450.66130859 -45.62890625 449.1640625 C-57.109375 435.5800296 -57.109375 435.5800296 -57.109375 432.12890625 C-57.769375 431.79890625 -58.429375 431.46890625 -59.109375 431.12890625 C-59.83631404 429.15001664 -60.50753751 427.14936067 -61.109375 425.12890625 C-61.769375 425.12890625 -62.429375 425.12890625 -63.109375 425.12890625 C-63.769375 422.81890625 -64.429375 420.50890625 -65.109375 418.12890625 C-65.769375 418.12890625 -66.429375 418.12890625 -67.109375 418.12890625 C-67.769375 415.15890625 -68.429375 412.18890625 -69.109375 409.12890625 C-69.769375 409.12890625 -70.429375 409.12890625 -71.109375 409.12890625 C-71.769375 405.82890625 -72.429375 402.52890625 -73.109375 399.12890625 C-73.769375 399.12890625 -74.429375 399.12890625 -75.109375 399.12890625 C-77.40550256 389.71888347 -77.40550256 389.71888347 -77.109375 385.12890625 C-77.769375 385.12890625 -78.429375 385.12890625 -79.109375 385.12890625 C-79.23783813 384.00077515 -79.23783813 384.00077515 -79.36889648 382.84985352 C-79.75707645 379.4631733 -80.15188484 376.07729864 -80.546875 372.69140625 C-80.68158203 371.50740234 -80.81628906 370.32339844 -80.95507812 369.10351562 C-81.15327148 367.41645508 -81.15327148 367.41645508 -81.35546875 365.6953125 C-81.53613892 364.1321228 -81.53613892 364.1321228 -81.72045898 362.53735352 C-81.85943439 360.1837333 -81.85943439 360.1837333 -83.109375 359.12890625 C-83.20620053 357.62240854 -83.23309228 356.11136585 -83.23242283 354.60175991 C-83.23441388 353.61745131 -83.23640493 352.63314271 -83.23845631 351.61900657 C-83.23554347 350.524672 -83.23263063 349.43033742 -83.22962952 348.30284119 C-83.23048394 347.150425 -83.23133837 345.99800881 -83.23221868 344.81067091 C-83.23358683 341.59767161 -83.2304395 338.38471211 -83.22544062 335.17171752 C-83.22113931 331.71226173 -83.22258232 328.25280794 -83.2233429 324.79335022 C-83.22386833 318.79487094 -83.22071946 312.7964025 -83.21510506 306.79792595 C-83.20699274 298.12503798 -83.20437511 289.45215527 -83.20311707 280.77926392 C-83.20092612 266.70952909 -83.19426489 252.63980005 -83.18481445 238.57006836 C-83.17564143 224.89917022 -83.16856006 211.22827364 -83.16430664 197.55737305 C-83.16404392 196.71530302 -83.16378119 195.87323299 -83.16351051 195.00564568 C-83.16220551 190.78140824 -83.16094179 186.55717077 -83.15969861 182.33293331 C-83.14932467 147.26492016 -83.13170521 112.19691374 -83.109375 77.12890625 C-82.449375 77.12890625 -81.789375 77.12890625 -81.109375 77.12890625 C-81.150625 75.85015625 -81.191875 74.57140625 -81.234375 73.25390625 C-81.25095283 68.04017769 -80.29248858 63.18882953 -79.109375 58.12890625 C-78.449375 58.12890625 -77.789375 58.12890625 -77.109375 58.12890625 C-76.449375 54.82890625 -75.789375 51.52890625 -75.109375 48.12890625 C-74.449375 48.12890625 -73.789375 48.12890625 -73.109375 48.12890625 C-72.449375 45.81890625 -71.789375 43.50890625 -71.109375 41.12890625 C-70.449375 41.12890625 -69.789375 41.12890625 -69.109375 41.12890625 C-68.449375 39.14890625 -67.789375 37.16890625 -67.109375 35.12890625 C-66.449375 35.12890625 -65.789375 35.12890625 -65.109375 35.12890625 C-64.449375 33.47890625 -63.789375 31.82890625 -63.109375 30.12890625 C-62.449375 30.12890625 -61.789375 30.12890625 -61.109375 30.12890625 C-60.84125 29.53078125 -60.573125 28.93265625 -60.296875 28.31640625 C-59.11020094 26.13042771 -58.01338387 24.71558031 -56.109375 23.12890625 C-55.449375 23.12890625 -54.789375 23.12890625 -54.109375 23.12890625 C-54.109375 22.46890625 -54.109375 21.80890625 -54.109375 21.12890625 C-52.0148782 19.49460874 -49.93155409 17.98723391 -47.734375 16.50390625 C-47.13109375 16.08367188 -46.5278125 15.6634375 -45.90625 15.23046875 C-41.37474635 12.12890625 -41.37474635 12.12890625 -39.109375 12.12890625 C-38.779375 11.46890625 -38.449375 10.80890625 -38.109375 10.12890625 C-35.48356362 8.55341942 -34.23837713 8.12890625 -31.109375 8.12890625 C-31.109375 7.46890625 -31.109375 6.80890625 -31.109375 6.12890625 C-30.39652344 5.93554688 -29.68367187 5.7421875 -28.94921875 5.54296875 C-27.51255859 5.15238281 -27.51255859 5.15238281 -26.046875 4.75390625 C-25.03496094 4.480625 -24.02304687 4.20734375 -22.98046875 3.92578125 C-20.84305058 3.33253865 -18.72118235 2.68270147 -16.609375 2.00390625 C-11.12022557 0.63161889 -5.6310601 0.34412034 0 0 Z " fill="#24C3AB" transform="translate(764.109375,13.87109375)"/>
<path d="M0 0 C1.17165012 -0.00155999 2.34330024 -0.00311998 3.55045491 -0.00472724 C6.77102033 -0.00800366 9.99154743 -0.00685446 13.21211183 -0.00374103 C16.69745031 -0.00146513 20.18278386 -0.00497734 23.66812134 -0.00772095 C30.48260525 -0.01215386 37.29707812 -0.01121334 44.11156245 -0.00830831 C49.65089681 -0.00604508 55.19022808 -0.00574573 60.72956276 -0.00683212 C61.5195159 -0.00698536 62.30946904 -0.00713859 63.12336016 -0.00729647 C64.72835944 -0.00761621 66.33335871 -0.00794042 67.93835799 -0.00826906 C82.9665037 -0.01111644 97.99464331 -0.00784817 113.02278803 -0.00246869 C125.90910071 0.00200128 138.79540439 0.00122039 151.68171692 -0.00338745 C166.66268207 -0.00874181 181.64364188 -0.01084456 196.62460786 -0.00777519 C198.22261163 -0.00745665 199.82061539 -0.00714228 201.41861916 -0.00683212 C202.59786662 -0.00660071 202.59786662 -0.00660071 203.80093726 -0.00636462 C209.33319642 -0.00550225 214.86545217 -0.00695627 220.3977108 -0.00931168 C227.13999877 -0.01211932 233.88227511 -0.01135094 240.62456175 -0.00603093 C244.06251317 -0.00340736 247.50044519 -0.00236611 250.93839645 -0.00568008 C254.66817884 -0.00841157 258.39790664 -0.00498592 262.12768555 0 C263.20969071 -0.00223072 264.29169587 -0.00446144 265.40648907 -0.00675976 C274.51006972 0.01685267 282.30417283 1.0348633 290.87336731 4.12698364 C292.19207825 4.5427063 292.19207825 4.5427063 293.53742981 4.96682739 C304.63332437 8.60815617 312.93314666 15.83957689 321.87336731 23.12698364 C322.712547 23.75733521 323.55172668 24.38768677 324.41633606 25.03713989 C328.74417743 28.71821324 331.6768755 33.46868155 334.87336731 38.12698364 C335.36321106 38.83467896 335.85305481 39.54237427 336.35774231 40.27151489 C340.32143584 46.2782233 343.87336731 52.83680818 343.87336731 60.12698364 C344.53336731 60.12698364 345.19336731 60.12698364 345.87336731 60.12698364 C347.75173765 68.51332959 348.17893847 76.55050163 348.12336731 85.12698364 C348.13110168 86.32065552 348.13883606 87.51432739 348.14680481 88.74417114 C348.13074 96.08579023 347.47853733 102.96039312 345.87336731 110.12698364 C345.21336731 110.12698364 344.55336731 110.12698364 343.87336731 110.12698364 C343.72899231 111.22010864 343.58461731 112.31323364 343.43586731 113.43948364 C342.87336731 117.12698364 342.87336731 117.12698364 341.87336731 120.12698364 C341.21336731 120.12698364 340.55336731 120.12698364 339.87336731 120.12698364 C339.72899231 121.07573364 339.58461731 122.02448364 339.43586731 123.00198364 C338.87336731 126.12698364 338.87336731 126.12698364 337.87336731 128.12698364 C337.21336731 128.12698364 336.55336731 128.12698364 335.87336731 128.12698364 C335.60524231 128.84885864 335.33711731 129.57073364 335.06086731 130.31448364 C332.81899953 135.62417048 330.03571116 139.15383724 325.87336731 143.12698364 C324.66236952 144.33264664 323.45415411 145.54110913 322.24836731 146.75198364 C321.12336731 147.87698364 319.99836731 149.00198364 318.87336731 150.12698364 C318.36032043 150.65936646 317.84727356 151.19174927 317.31867981 151.74026489 C315.38023204 153.60012694 313.19623525 154.79133458 310.87336731 156.12698364 C309.38836731 157.11698364 309.38836731 157.11698364 307.87336731 158.12698364 C306.88336731 158.12698364 305.89336731 158.12698364 304.87336731 158.12698364 C304.87336731 158.78698364 304.87336731 159.44698364 304.87336731 160.12698364 C301.9673647 161.38363342 300.07732147 162.12698364 296.87336731 162.12698364 C296.87336731 162.78698364 296.87336731 163.44698364 296.87336731 164.12698364 C296.16051575 164.32034302 295.44766418 164.51370239 294.71321106 164.71292114 C293.75543762 164.97331177 292.79766418 165.23370239 291.81086731 165.50198364 C290.29299622 165.91190552 290.29299622 165.91190552 288.74446106 166.33010864 C286.60704288 166.92335124 284.48517466 167.57318842 282.37336731 168.25198364 C270.55989694 171.20535124 257.88011716 170.25863601 245.79353333 170.23709106 C243.55525207 170.23684864 241.31697071 170.23712702 239.07868958 170.23788452 C234.27487405 170.23898689 229.47106812 170.23756768 224.66725349 170.23451805 C217.0641393 170.23087263 209.46107449 170.24005023 201.85797119 170.25230408 C200.57224876 170.25432601 199.28652632 170.25634794 197.9618426 170.25843114 C195.33374336 170.2625993 192.70564418 170.26680205 190.07754505 170.27103865 C183.33948379 170.28174487 176.60142204 170.2916374 169.86335754 170.30007935 C168.85013373 170.30135622 168.85013373 170.30135622 167.81644075 170.30265889 C156.86769325 170.31588261 145.91901855 170.31085586 134.97027183 170.30000778 C123.70131341 170.2893574 112.432533 170.30202699 101.16360229 170.33409005 C94.84752652 170.35121716 88.53185378 170.35757429 82.21577644 170.33797264 C76.27538784 170.31970128 70.3356934 170.32942473 64.39536285 170.36022949 C62.22183444 170.36657672 60.04824783 170.36278724 57.87476158 170.34783363 C39.81899105 170.16669664 39.81899105 170.16669664 24.63858891 179.22973919 C16.9685359 187.45382751 14.55069791 195.42148834 14.65304565 206.42074585 C14.6534535 207.33620391 14.65386135 208.25166196 14.65428156 209.19486117 C14.65800181 212.25208994 14.67601367 215.30906541 14.69392395 218.36624146 C14.69940171 220.56301673 14.70395067 222.75979448 14.7076416 224.95657349 C14.71734678 229.68462924 14.73317 234.41261121 14.75360298 239.14063263 C14.78547932 246.6319014 14.80092821 254.12314894 14.81365967 261.61447144 C14.83290202 272.13265617 14.85698194 282.65081745 14.88728333 293.16897583 C14.88920126 293.83591236 14.89111919 294.50284889 14.89309525 295.18999562 C14.91459881 302.61512383 14.93775035 310.0402454 14.96278381 317.46536255 C14.97181433 320.15042108 14.98083118 322.83547966 14.98982239 325.52053833 C14.99204404 326.18301761 14.9942657 326.84549688 14.99655468 327.52805129 C15.03344458 338.62620281 15.05826176 349.72434592 15.07429212 360.82254672 C15.08574812 368.25281276 15.11104074 375.68285763 15.14703953 383.11304331 C15.1663907 387.76178622 15.17293042 392.41048572 15.17610359 397.05926514 C15.18008365 399.19600814 15.18916432 401.33274954 15.20406723 403.46944427 C15.29270582 416.66717073 14.36842067 429.15684874 11.87336731 442.12698364 C11.21336731 442.12698364 10.55336731 442.12698364 9.87336731 442.12698364 C9.85274231 443.15823364 9.83211731 444.18948364 9.81086731 445.25198364 C8.74518387 454.01252835 3.29956478 462.42811725 -2.12663269 469.12698364 C-2.45663269 470.11698364 -2.78663269 471.10698364 -3.12663269 472.12698364 C-4.24527227 473.31341956 -5.37495064 474.49127615 -6.55632019 475.61526489 C-7.69323407 476.70975661 -8.79909669 477.83680675 -9.88444519 478.98245239 C-15.36652482 484.71977055 -22.02937585 491.65982013 -30.12663269 493.12698364 C-30.12663269 493.78698364 -30.12663269 494.44698364 -30.12663269 495.12698364 C-32.76663269 495.78698364 -35.40663269 496.44698364 -38.12663269 497.12698364 C-38.12663269 497.78698364 -38.12663269 498.44698364 -38.12663269 499.12698364 C-39.05346863 499.33194458 -39.98030457 499.53690552 -40.93522644 499.74807739 C-42.1327655 500.01749146 -43.33030457 500.28690552 -44.56413269 500.56448364 C-46.3565741 500.96473755 -46.3565741 500.96473755 -48.18522644 501.37307739 C-50.99710129 501.82765112 -50.99710129 501.82765112 -52.12663269 503.12698364 C-58.2577603 504.32124993 -64.33522082 504.27601803 -70.56413269 504.25198364 C-71.5625116 504.25585083 -72.5608905 504.25971802 -73.58952332 504.26370239 C-87.61933514 504.24525425 -98.30549502 500.61555865 -111.12663269 495.12698364 C-111.12663269 494.46698364 -111.12663269 493.80698364 -111.12663269 493.12698364 C-113.43663269 492.46698364 -115.74663269 491.80698364 -118.12663269 491.12698364 C-118.12663269 490.46698364 -118.12663269 489.80698364 -118.12663269 489.12698364 C-119.77663269 488.46698364 -121.42663269 487.80698364 -123.12663269 487.12698364 C-123.12663269 486.46698364 -123.12663269 485.80698364 -123.12663269 485.12698364 C-123.80725769 484.96198364 -124.48788269 484.79698364 -125.18913269 484.62698364 C-129.47772472 482.43706431 -132.32172325 479.00697365 -135.12663269 475.12698364 C-135.12663269 474.46698364 -135.12663269 473.80698364 -135.12663269 473.12698364 C-136.11663269 472.79698364 -137.10663269 472.46698364 -138.12663269 472.12698364 C-142.12663269 466.75555507 -142.12663269 466.75555507 -142.12663269 464.12698364 C-142.78663269 464.12698364 -143.44663269 464.12698364 -144.12663269 464.12698364 C-144.78663269 461.81698364 -145.44663269 459.50698364 -146.12663269 457.12698364 C-146.78663269 457.12698364 -147.44663269 457.12698364 -148.12663269 457.12698364 C-148.31999207 456.46311646 -148.51335144 455.79924927 -148.71257019 455.11526489 C-150.31312232 449.65742043 -150.31312232 449.65742043 -152.25163269 444.31448364 C-154.38544805 438.97994524 -154.23755374 433.78395736 -154.12663269 428.12698364 C-154.78663269 428.12698364 -155.44663269 428.12698364 -156.12663269 428.12698364 C-156.14949785 392.21887351 -156.1671303 356.31076466 -156.17769802 320.40264875 C-156.1789488 316.1679381 -156.18024311 311.93322747 -156.18156433 307.69851685 C-156.18182664 306.85542579 -156.18208895 306.01233474 -156.18235921 305.14369547 C-156.18671616 291.47413188 -156.19460384 277.80457248 -156.20378549 264.13501138 C-156.21312135 250.11946301 -156.21868816 236.10391685 -156.22072119 222.0883655 C-156.22209655 213.43290044 -156.22644789 204.77744721 -156.23454916 196.12198579 C-156.23981578 190.19485716 -156.24143718 184.26773469 -156.24013407 178.3406039 C-156.23949056 174.91574624 -156.24050966 171.49090931 -156.24583817 168.0660553 C-156.25076779 164.36170285 -156.24963369 160.6574022 -156.24688721 156.95304871 C-156.24980005 155.85871413 -156.25271289 154.76437955 -156.255714 153.63688332 C-156.25372295 152.65257472 -156.2517319 151.66826612 -156.24968052 150.65412998 C-156.25006024 149.79786064 -156.25043996 148.94159129 -156.25083119 148.05937439 C-156.12663269 146.12698364 -156.12663269 146.12698364 -155.12663269 145.12698364 C-154.82814269 143.27851921 -154.58770447 141.42060467 -154.37272644 139.56057739 C-154.24059753 138.43587036 -154.10846863 137.31116333 -153.97233582 136.15237427 C-153.83762878 134.96837036 -153.70292175 133.78436646 -153.56413269 132.56448364 C-153.42555847 131.37661255 -153.28698425 130.18874146 -153.14421082 128.96487427 C-152.80115621 126.01933643 -152.46214722 123.07338831 -152.12663269 120.12698364 C-151.46663269 120.12698364 -150.80663269 120.12698364 -150.12663269 120.12698364 C-150.06604675 119.53530396 -150.00546082 118.94362427 -149.94303894 118.33401489 C-149.50650898 114.21720157 -149.03991923 110.17153831 -148.12663269 106.12698364 C-147.46663269 106.12698364 -146.80663269 106.12698364 -146.12663269 106.12698364 C-145.98225769 105.03385864 -145.83788269 103.94073364 -145.68913269 102.81448364 C-145.12663269 99.12698364 -145.12663269 99.12698364 -144.12663269 96.12698364 C-143.46663269 96.12698364 -142.80663269 96.12698364 -142.12663269 96.12698364 C-141.98225769 95.19885864 -141.83788269 94.27073364 -141.68913269 93.31448364 C-141.12663269 90.12698364 -141.12663269 90.12698364 -140.12663269 87.12698364 C-139.46663269 87.12698364 -138.80663269 87.12698364 -138.12663269 87.12698364 C-138.050578 86.44506958 -137.97452332 85.76315552 -137.89616394 85.06057739 C-136.90572165 81.2848304 -134.96630628 78.38847447 -132.81413269 75.18948364 C-132.42290222 74.5945813 -132.03167175 73.99967896 -131.62858582 73.38674927 C-130.85012249 72.20549895 -130.06618392 71.02783683 -129.27653503 69.85403442 C-128.50565127 68.69623575 -127.75080771 67.52760617 -127.0118866 66.34915161 C-126.10006043 64.90891437 -125.1190203 63.51294075 -124.12663269 62.12698364 C-123.46663269 62.12698364 -122.80663269 62.12698364 -122.12663269 62.12698364 C-121.79663269 60.80698364 -121.46663269 59.48698364 -121.12663269 58.12698364 C-120.46663269 58.12698364 -119.80663269 58.12698364 -119.12663269 58.12698364 C-118.81725769 57.50823364 -118.50788269 56.88948364 -118.18913269 56.25198364 C-117.50163269 54.87698364 -116.81413269 53.50198364 -116.12663269 52.12698364 C-115.46663269 52.12698364 -114.80663269 52.12698364 -114.12663269 52.12698364 C-113.86366394 51.54046021 -113.60069519 50.95393677 -113.32975769 50.34963989 C-108.08510492 40.66065474 -94.77415426 31.28489482 -85.12663269 26.12698364 C-84.46663269 26.12698364 -83.80663269 26.12698364 -83.12663269 26.12698364 C-83.12663269 25.46698364 -83.12663269 24.80698364 -83.12663269 24.12698364 C-60.7377438 11.12698364 -60.7377438 11.12698364 -54.12663269 11.12698364 C-54.12663269 10.46698364 -54.12663269 9.80698364 -54.12663269 9.12698364 C-52.88913269 8.79698364 -51.65163269 8.46698364 -50.37663269 8.12698364 C-49.33249207 7.84854614 -49.33249207 7.84854614 -48.26725769 7.56448364 C-46.12663269 7.12698364 -46.12663269 7.12698364 -42.12663269 7.12698364 C-42.12663269 6.46698364 -42.12663269 5.80698364 -42.12663269 5.12698364 C-40.83885925 4.92202271 -39.55108582 4.71706177 -38.22428894 4.50588989 C-36.54586906 4.23396712 -34.86748549 3.96182013 -33.18913269 3.68948364 C-32.33899597 3.55477661 -31.48885925 3.42006958 -30.61296082 3.28128052 C-29.8040741 3.14915161 -28.99518738 3.01702271 -28.16178894 2.88088989 C-27.41292419 2.76044312 -26.66405945 2.63999634 -25.89250183 2.51589966 C-24.10954419 2.2893846 -24.10954419 2.2893846 -23.12663269 1.12698364 C-15.47265394 -0.02223712 -7.72103041 -0.01601717 0 0 Z " fill="#F3BE00" transform="translate(837.1266326904297,683.8730163574219)"/>
<path d="M0 0 C0 0.66 0 1.32 0 2 C1.258125 2.144375 2.51625 2.28875 3.8125 2.4375 C6.42667123 2.73748686 8.47439892 3.15813297 11 4 C11 4.66 11 5.32 11 6 C11.886875 6.103125 12.77375 6.20625 13.6875 6.3125 C17.19053368 7.03954473 19.04203406 8.02802271 22 10 C23.37485457 10.83357324 24.7498652 11.66688913 26.125 12.5 C28.77901016 14.11099449 30.84653832 15.7706711 33 18 C34.4540625 19.175625 34.4540625 19.175625 35.9375 20.375 C38.6980444 22.65365386 40.93201466 25.05709779 43 28 C43 28.66 43 29.32 43 30 C43.99 30.33 44.98 30.66 46 31 C46.6875 33.0625 46.6875 33.0625 47 35 C47.66 35 48.32 35 49 35 C49.66 36.98 50.32 38.96 51 41 C51.66 41 52.32 41 53 41 C54.25664978 43.90600261 55 45.79604584 55 49 C55.66 49 56.32 49 57 49 C57.19335938 49.71285156 57.38671875 50.42570312 57.5859375 51.16015625 C57.97652344 52.59681641 57.97652344 52.59681641 58.375 54.0625 C58.64828125 55.07054687 58.9215625 56.07859375 59.203125 57.1171875 C59.81108781 59.31658239 60.45913352 61.50493764 61.125 63.6875 C63.12175554 71.24664598 63.14509878 78.72809149 63.13371277 86.49530029 C63.13597833 87.63550259 63.13824388 88.77570488 63.14057809 89.95045877 C63.14689622 93.76223028 63.14609011 97.57396603 63.14526367 101.38574219 C63.14771411 104.12291091 63.15163145 106.86007714 63.15544128 109.59724426 C63.16373315 116.25774625 63.16649553 122.91823939 63.16705366 129.57874611 C63.16752985 135.00029582 63.16958976 140.42184263 63.17275429 145.84339142 C63.18155962 161.24465993 63.18617427 176.64592149 63.18542381 192.04719254 C63.18536388 193.29154464 63.18536388 193.29154464 63.18530273 194.56103516 C63.18526185 195.39162769 63.18522097 196.22222022 63.18517885 197.07798222 C63.18477321 210.51111617 63.19432249 223.94422198 63.2084411 237.3773478 C63.22285326 251.20001132 63.22970852 265.02266117 63.22884732 278.84533238 C63.22851685 286.59352255 63.23119743 294.34168328 63.24202538 302.08986664 C63.25119466 308.69318725 63.25325376 315.2964651 63.24651595 321.89978936 C63.24328179 325.26026322 63.24419641 328.62058944 63.2518692 331.98106575 C63.27711501 343.81345218 63.25710627 355.58499829 62.1098175 367.37115479 C62.03228625 368.16796905 61.95475499 368.96478332 61.87487429 369.78574347 C61.39155751 374.09724107 60.50801412 377.90527624 59 382 C58.65743662 383.61892915 58.34321013 385.24420784 58.0625 386.875 C57.16662345 391.51288399 55.76967389 395.63530012 54 400 C53.10150874 402.33231114 52.2058389 404.66571051 51.3125 407 C50.5419965 409.00012709 49.77127569 411.00017055 49 413 C48.34 413 47.68 413 47 413 C46.88785156 413.71542969 46.77570313 414.43085938 46.66015625 415.16796875 C45.95543995 418.19115998 44.86712202 420.56322688 43.4375 423.3125 C42.98246094 424.19550781 42.52742188 425.07851563 42.05859375 425.98828125 C41.70925781 426.65214844 41.35992187 427.31601562 41 428 C40.34 428 39.68 428 39 428 C38.34 429.98 37.68 431.96 37 434 C36.34 434 35.68 434 35 434 C34.7525 434.721875 34.505 435.44375 34.25 436.1875 C32.87730408 439.27606582 31.27646704 441.51011418 29 444 C28.34 444 27.68 444 27 444 C26.9175 444.5775 26.835 445.155 26.75 445.75 C25.77523412 448.67429763 24.23796027 449.88637085 22 452 C21.175 453.010625 20.35 454.02125 19.5 455.0625 C17.42116092 457.50513592 15.70472757 459.32120358 13 461 C12.34 461 11.68 461 11 461 C10.67 461.99 10.34 462.98 10 464 C7.95098486 465.78565303 5.91681351 467.43383382 3.75 469.0625 C3.17636719 469.50916016 2.60273438 469.95582031 2.01171875 470.41601562 C-1.197333 472.86118148 -4.12773346 474.71167072 -8 476 C-8 476.66 -8 477.32 -8 478 C-11.71994366 480.02796929 -15.44763321 482.04044369 -19.18652344 484.03320312 C-20.88905633 484.94085394 -22.58914711 485.85308135 -24.2890625 486.765625 C-29.57644015 489.52309284 -33.99839546 491.72719979 -40 492 C-40 492.66 -40 493.32 -40 494 C-41.19496094 494.29003906 -41.19496094 494.29003906 -42.4140625 494.5859375 C-43.47367187 494.84632813 -44.53328125 495.10671875 -45.625 495.375 C-47.19121094 495.75785156 -47.19121094 495.75785156 -48.7890625 496.1484375 C-51.98008185 496.94942789 -51.98008185 496.94942789 -54.94140625 498.03515625 C-58.39796619 499.12553978 -61.71857202 499.61088709 -65.3125 500.0625 C-69.48091497 500.24629418 -69.48091497 500.24629418 -73 502 C-87.02494919 503.63864838 -101.32065296 503.14160035 -115.41113281 503.12939453 C-118.05408853 503.13075172 -120.69704145 503.13249773 -123.33999634 503.13470459 C-129.73736889 503.13912224 -136.13472962 503.13820395 -142.53210261 503.13529195 C-147.73470788 503.13302286 -152.93730985 503.13273188 -158.13991547 503.13381577 C-158.88363049 503.133969 -159.62734551 503.13412223 -160.39359735 503.13428011 C-161.90493403 503.13459987 -163.41627071 503.13492408 -164.92760739 503.1352527 C-179.05647635 503.13809555 -193.1853388 503.13483886 -207.31420669 503.12945233 C-219.41520355 503.12498168 -231.51619081 503.1257647 -243.6171875 503.13037109 C-257.70571511 503.13573163 -271.79423704 503.13782484 -285.88276553 503.13475883 C-287.38695955 503.13444031 -288.89115357 503.13412594 -290.3953476 503.13381577 C-291.13524902 503.13366149 -291.87515044 503.13350721 -292.63747312 503.13334826 C-297.83077826 503.13248783 -303.02407976 503.13393569 -308.21738434 503.13629532 C-314.55027357 503.1391098 -320.88315043 503.13832024 -327.21603826 503.13301457 C-330.4418686 503.13040032 -333.66767428 503.12987901 -336.8935051 503.13266373 C-340.40047959 503.13541131 -343.9073968 503.13195026 -347.41436768 503.12698364 C-348.4190557 503.12921436 -349.42374373 503.13144509 -350.45887685 503.13374341 C-359.75756986 503.10833998 -369.12727708 503.01337759 -378 500 C-379.04220703 499.67515625 -379.04220703 499.67515625 -380.10546875 499.34375 C-387.73344514 496.92800532 -394.88609316 493.64815735 -402 490 C-402 489.34 -402 488.68 -402 488 C-403.3303125 487.6596875 -403.3303125 487.6596875 -404.6875 487.3125 C-408.55624623 485.77960055 -410.20668573 484.06583273 -413 481 C-414.87656432 479.17839781 -416.75942444 477.36353854 -418.64453125 475.55078125 C-420 474 -420 474 -420 472 C-420.99 471.67 -421.98 471.34 -423 471 C-424.38671875 469.22265625 -424.38671875 469.22265625 -425.6875 467.0625 C-426.34298828 465.99708984 -426.34298828 465.99708984 -427.01171875 464.91015625 C-428 463 -428 463 -428 461 C-428.66 461 -429.32 461 -430 461 C-430.77183035 459.31295579 -431.54240925 457.62533901 -432.3125 455.9375 C-432.74175781 454.99777344 -433.17101562 454.05804688 -433.61328125 453.08984375 C-434.07089844 452.07019531 -434.52851563 451.05054688 -435 450 C-435.7734375 448.29070312 -435.7734375 448.29070312 -436.5625 446.546875 C-443.84899676 428.56823625 -443.35094507 404.88938336 -435.94921875 387.03125 C-427.79091053 369.57314187 -427.79091053 369.57314187 -423 365 C-422.67 364.34 -422.34 363.68 -422 363 C-421.34 363 -420.68 363 -420 363 C-419.75121094 362.41347656 -419.50242187 361.82695312 -419.24609375 361.22265625 C-417.82588804 358.68943667 -416.28816254 357.29014647 -414.0625 355.4375 C-411.13186992 352.98068843 -411.13186992 352.98068843 -408.3828125 350.328125 C-406.68202851 348.69460365 -405.29267793 348.3952893 -403 348 C-403 347.34 -403 346.68 -403 346 C-400.35261084 344.5393715 -399.10551666 344 -396 344 C-396 343.34 -396 342.68 -396 342 C-393.09399739 340.74335022 -391.20395416 340 -388 340 C-388 339.34 -388 338.68 -388 338 C-379.57142857 335.71428571 -379.57142857 335.71428571 -375 336 C-375 335.34 -375 334.68 -375 334 C-368.96113569 333.12308876 -363.10006581 332.84838816 -357.00256348 332.84178162 C-356.02384262 332.83684364 -355.04512176 332.83190566 -354.03674269 332.82681805 C-350.77254363 332.8115171 -347.50836412 332.80310257 -344.24414062 332.79467773 C-341.89816111 332.78509339 -339.5521833 332.77508298 -337.20620728 332.76467896 C-330.84739062 332.73768417 -324.48856658 332.71664525 -318.1297245 332.69667697 C-312.15457244 332.67700295 -306.1794391 332.65286669 -300.20430368 332.62875474 C-288.37351972 332.58115787 -276.5427241 332.53787241 -264.71191406 332.49731445 C-253.22297255 332.45791921 -241.73404138 332.4164834 -230.24511719 332.37231445 C-229.53631403 332.36959018 -228.82751087 332.36686591 -228.09722883 332.36405908 C-224.54118481 332.35037894 -220.98514096 332.3366588 -217.42909718 332.32291877 C-187.95275334 332.20907825 -158.47638609 332.10231369 -129 332 C-129 331.34 -129 330.68 -129 330 C-126.36 329.34 -123.72 328.68 -121 328 C-121 327.34 -121 326.68 -121 326 C-120.29875 325.649375 -119.5975 325.29875 -118.875 324.9375 C-112.75056604 320.81016407 -109.44100055 314.13159909 -108 307 C-107.7221433 303.78368931 -107.71867817 300.58421248 -107.72825623 297.35733032 C-107.72316939 296.40467077 -107.71808255 295.45201121 -107.71284157 294.47048318 C-107.69821492 291.28838619 -107.69764797 288.10644462 -107.69702148 284.92431641 C-107.68935819 282.63921814 -107.68081142 280.35412269 -107.67144775 278.06903076 C-107.65318679 273.15435096 -107.64113709 268.23970907 -107.63390923 263.32500076 C-107.62242401 255.56138217 -107.5969704 247.79784775 -107.56959534 240.03427124 C-107.53269605 229.15811227 -107.50196893 218.28195408 -107.47680664 207.40576172 C-107.47441069 206.37135901 -107.47441069 206.37135901 -107.47196633 205.31605928 C-107.46956798 204.28031496 -107.46956798 204.28031496 -107.46712118 203.22364652 C-107.4444023 193.41976226 -107.41976994 183.61588531 -107.39282227 173.81201172 C-107.38997805 172.77614396 -107.38997805 172.77614396 -107.38707637 171.71934958 C-107.35534256 160.22123585 -107.31959283 148.72313705 -107.28178078 137.22504175 C-107.25679969 129.49884701 -107.23739541 121.77266357 -107.22239864 114.04644322 C-107.21223142 109.2543481 -107.19808647 104.46227056 -107.18292236 99.6701889 C-107.17674079 97.43882789 -107.17229619 95.20746132 -107.16966438 92.97609329 C-107.16588247 89.94428518 -107.1560955 86.91255564 -107.14476013 83.88076782 C-107.14514626 82.9857555 -107.1455324 82.09074317 -107.14593023 81.16860926 C-107.11406512 75.11406512 -107.11406512 75.11406512 -106 74 C-105.62505204 71.73566584 -105.29996057 69.4629821 -105 67.1875 C-103.97401509 59.45253562 -103.97401509 59.45253562 -103 56 C-102.34 56 -101.68 56 -101 56 C-100.9071875 54.576875 -100.9071875 54.576875 -100.8125 53.125 C-100.10828237 47.92872751 -97.47950619 43.54728625 -95 39 C-94.34 39 -93.68 39 -93 39 C-92.34 37.02 -91.68 35.04 -91 33 C-90.34 33 -89.68 33 -89 33 C-88.76023437 32.27425781 -88.52046875 31.54851563 -88.2734375 30.80078125 C-84.09393714 21.60844457 -73.5450473 14.84039072 -65 10 C-64.34 10 -63.68 10 -63 10 C-62.67 9.34 -62.34 8.68 -62 8 C-59.37418862 6.42451317 -58.12900213 6 -55 6 C-55 5.34 -55 4.68 -55 4 C-54.28714844 3.80664062 -53.57429688 3.61328125 -52.83984375 3.4140625 C-51.40318359 3.02347656 -51.40318359 3.02347656 -49.9375 2.625 C-48.4215625 2.21507812 -48.4215625 2.21507812 -46.875 1.796875 C-44.71694318 1.19871795 -42.57297191 0.54935955 -40.4375 -0.125 C-27.02649349 -3.53871075 -13.50444959 -1.75463846 0 0 Z " fill="#9672F8" transform="translate(453,16)"/>
<path d="M0 0 C1.1710537 -0.00155999 2.3421074 -0.00311998 3.54864758 -0.00472724 C6.78160062 -0.0080148 10.01451581 -0.00684633 13.24746788 -0.00374103 C16.74109651 -0.00147224 20.23472015 -0.00497395 23.72834778 -0.00772095 C30.56630778 -0.01216222 37.40425679 -0.01120935 44.24221722 -0.00830831 C49.80257391 -0.00604727 55.36292752 -0.00574479 60.92328453 -0.00683212 C62.11168774 -0.00706197 62.11168774 -0.00706197 63.32409909 -0.00729647 C64.93376277 -0.0076162 66.54342646 -0.00794042 68.15309014 -0.00826906 C83.23997134 -0.01111918 98.32684645 -0.00784444 113.41372665 -0.00246869 C126.34460235 0.00199633 139.27546907 0.001225 152.2063446 -0.00338745 C167.23565973 -0.00874594 182.26496953 -0.0108418 197.29428548 -0.00777519 C198.89884929 -0.00745665 200.5034131 -0.00714228 202.10797691 -0.00683212 C202.89736883 -0.00667785 203.68676074 -0.00652357 204.50007362 -0.00636462 C210.04892238 -0.0055031 215.59776775 -0.00695454 221.14661598 -0.00931168 C227.91597325 -0.01212414 234.68531893 -0.01134107 241.45467488 -0.00603093 C244.90512871 -0.00341301 248.35556326 -0.00235629 251.80601692 -0.00568008 C255.55461631 -0.00842162 259.30316183 -0.00497372 263.05175781 0 C264.67056373 -0.00334608 264.67056373 -0.00334608 266.3220728 -0.00675976 C275.58009084 0.01698619 284.32262861 0.42710261 293.21635437 3.12698364 C296.87213888 3.85814054 300.54102074 4.50224339 304.21635437 5.12698364 C304.21635437 5.78698364 304.21635437 6.44698364 304.21635437 7.12698364 C304.81963562 7.18756958 305.42291687 7.24815552 306.04447937 7.31057739 C306.84369812 7.39436646 307.64291687 7.47815552 308.46635437 7.56448364 C309.25526062 7.64569458 310.04416687 7.72690552 310.85697937 7.81057739 C313.04000076 8.10333357 315.09367257 8.54762783 317.21635437 9.12698364 C317.21635437 9.78698364 317.21635437 10.44698364 317.21635437 11.12698364 C320.18635437 11.78698364 323.15635437 12.44698364 326.21635437 13.12698364 C326.21635437 13.78698364 326.21635437 14.44698364 326.21635437 15.12698364 C326.87635437 15.20948364 327.53635437 15.29198364 328.21635437 15.37698364 C332.206746 16.37458155 335.6018508 18.19865047 339.21635437 20.12698364 C339.21635437 20.78698364 339.21635437 21.44698364 339.21635437 22.12698364 C339.81447937 22.27135864 340.41260437 22.41573364 341.02885437 22.56448364 C342.77785842 23.01422754 344.5031246 23.55590705 346.21635437 24.12698364 C346.21635437 24.78698364 346.21635437 25.44698364 346.21635437 26.12698364 C348.19635437 26.78698364 350.17635437 27.44698364 352.21635437 28.12698364 C352.21635437 28.78698364 352.21635437 29.44698364 352.21635437 30.12698364 C353.86635437 30.78698364 355.51635437 31.44698364 357.21635437 32.12698364 C357.21635437 32.78698364 357.21635437 33.44698364 357.21635437 34.12698364 C358.86635437 34.78698364 360.51635437 35.44698364 362.21635437 36.12698364 C362.21635437 36.78698364 362.21635437 37.44698364 362.21635437 38.12698364 C362.79772156 38.39253052 363.37908875 38.65807739 363.97807312 38.93167114 C374.9435451 44.78757765 383.39044219 57.06611535 390.21635437 67.12698364 C390.21635437 67.78698364 390.21635437 68.44698364 390.21635437 69.12698364 C390.87635437 69.12698364 391.53635437 69.12698364 392.21635437 69.12698364 C393.22144238 70.915801 394.22028173 72.7081306 395.21635437 74.50198364 C396.05166687 75.99858521 396.05166687 75.99858521 396.90385437 77.52542114 C398.21635437 80.12698364 398.21635437 80.12698364 398.21635437 82.12698364 C398.87635437 82.12698364 399.53635437 82.12698364 400.21635437 82.12698364 C401.47300415 85.03298625 402.21635437 86.92302949 402.21635437 90.12698364 C402.87635437 90.12698364 403.53635437 90.12698364 404.21635437 90.12698364 C404.87635437 93.09698364 405.53635437 96.06698364 406.21635437 99.12698364 C406.87635437 99.12698364 407.53635437 99.12698364 408.21635437 99.12698364 C408.50639343 100.23106567 408.50639343 100.23106567 408.80229187 101.35745239 C409.19287781 102.82118286 409.19287781 102.82118286 409.59135437 104.31448364 C409.97420593 105.75887817 409.97420593 105.75887817 410.36479187 107.23245239 C411.14744156 110.09851024 411.14744156 110.09851024 412.27885437 112.62698364 C413.33951239 115.45540503 413.62396182 117.93221999 413.84135437 120.93948364 C413.91612 121.91530396 413.99088562 122.89112427 414.06791687 123.89651489 C414.11690125 124.63256958 414.16588562 125.36862427 414.21635437 126.12698364 C414.87635437 126.12698364 415.53635437 126.12698364 416.21635437 126.12698364 C418.1499251 142.44165777 418.50278984 158.55938063 418.47514343 174.97610474 C418.4767618 177.71345341 418.48135321 180.45079546 418.48576355 183.18814087 C418.49457548 189.79773792 418.49277312 196.40728911 418.48693827 203.01688783 C418.48239137 208.39335894 418.48182183 213.76981734 418.4839859 219.14628983 C418.48429237 219.91621484 418.48459883 220.68613986 418.48491459 221.47939593 C418.48555413 223.04419775 418.48620256 224.60899957 418.48685977 226.17380138 C418.49253841 240.78445254 418.48604293 255.39507844 418.47525904 270.00572546 C418.46631503 282.51051292 418.46788736 295.01526325 418.47709656 307.52005005 C418.48782446 322.0935415 418.49200054 336.66701096 418.48587203 351.24050581 C418.48523502 352.79719456 418.48460628 354.3538833 418.4839859 355.91057205 C418.48367735 356.6762175 418.4833688 357.44186295 418.4830509 358.23070978 C418.4813323 363.59649358 418.48422069 368.96226328 418.48894501 374.32804489 C418.49458148 380.87264159 418.49297921 387.41719038 418.48238352 393.96178167 C418.4771654 397.29336948 418.47609949 400.62481245 418.48168182 403.95640945 C418.52066743 429.59707747 418.52066743 429.59707747 416.21635437 442.12698364 C415.55635437 442.12698364 414.89635437 442.12698364 414.21635437 442.12698364 C414.17510437 443.19948364 414.13385437 444.27198364 414.09135437 445.37698364 C412.02673396 461.06809878 398.16830062 476.29403067 386.71635437 486.31448364 C377.31980265 493.12698364 377.31980265 493.12698364 374.21635437 493.12698364 C374.21635437 493.78698364 374.21635437 494.44698364 374.21635437 495.12698364 C359.92319822 500.7161158 348.60091575 504.30840624 333.21635437 504.25198364 C332.16190125 504.25585083 331.10744812 504.25971802 330.02104187 504.26370239 C316.27698297 504.24647926 305.79151735 500.51025984 293.21635437 495.12698364 C293.21635437 494.46698364 293.21635437 493.80698364 293.21635437 493.12698364 C292.43260437 492.98260864 291.64885437 492.83823364 290.84135437 492.68948364 C288.21635437 492.12698364 288.21635437 492.12698364 286.21635437 491.12698364 C286.21635437 490.46698364 286.21635437 489.80698364 286.21635437 489.12698364 C284.56635437 488.46698364 282.91635437 487.80698364 281.21635437 487.12698364 C281.21635437 486.46698364 281.21635437 485.80698364 281.21635437 485.12698364 C280.51510437 484.94135864 279.81385437 484.75573364 279.09135437 484.56448364 C275.66113392 482.84937342 274.00233269 480.80444396 271.62651062 477.85745239 C270.17154201 476.00349803 270.17154201 476.00349803 268.09135437 474.06448364 C262.21635437 467.99365031 262.21635437 467.99365031 262.21635437 464.12698364 C261.55635437 464.12698364 260.89635437 464.12698364 260.21635437 464.12698364 C259.55635437 461.81698364 258.89635437 459.50698364 258.21635437 457.12698364 C257.55635437 457.12698364 256.89635437 457.12698364 256.21635437 457.12698364 C256.022995 456.46311646 255.82963562 455.79924927 255.63041687 455.11526489 C255.37002625 454.23225708 255.10963562 453.34924927 254.84135437 452.43948364 C254.45850281 451.13430786 254.45850281 451.13430786 254.06791687 449.80276489 C253.26458408 447.13623735 253.26458408 447.13623735 252.18119812 444.68167114 C251.08162403 441.77024826 250.60858217 439.01558343 250.15385437 435.93948364 C249.61653877 431.89671827 249.61653877 431.89671827 248.21635437 428.12698364 C248.11454886 425.10655008 248.07472172 422.10885671 248.07832336 419.08799744 C248.07550208 418.13975985 248.0726808 417.19152226 248.06977403 416.2145502 C248.06139924 413.01714032 248.06008732 409.81976494 248.05863953 406.62234497 C248.05397338 404.33786928 248.04883015 402.05339452 248.04324341 399.7689209 C248.0319456 394.83889159 248.02351952 389.9088684 248.01712418 384.97883034 C248.00646352 377.18457905 247.98622357 369.39037147 247.96400452 361.59614563 C247.95654899 358.9299937 247.94911067 356.26384173 247.94171715 353.59768963 C247.93986658 352.93133273 247.93801602 352.26497584 247.93610937 351.57842631 C247.91517392 343.98971716 247.89635058 336.40100328 247.87846375 328.81228638 C247.87682556 328.11844031 247.87518738 327.42459425 247.87349956 326.70972254 C247.84722993 315.47252939 247.82857868 304.23533296 247.81187184 292.99812213 C247.79444317 281.46168759 247.76539898 269.92532549 247.72698247 258.38894099 C247.70589483 251.91147992 247.69045272 245.43411075 247.6881752 238.95661354 C247.68602997 232.86222154 247.67017306 226.76802076 247.64378548 220.67368698 C247.63658597 218.43679419 247.63449465 216.19987825 247.63788795 213.96297646 C247.641781 210.90872031 247.6273328 207.85507538 247.60835266 204.80088806 C247.61388236 203.91605124 247.61941205 203.03121441 247.62510931 202.11956435 C247.56670256 196.67300382 246.64684167 193.00487596 244.21635437 188.12698364 C243.52798924 186.13434773 242.85354038 184.13657028 242.21635437 182.12698364 C241.55635437 182.12698364 240.89635437 182.12698364 240.21635437 182.12698364 C238.52872586 180.48154584 236.86231947 178.81409787 235.21635437 177.12698364 C234.55635437 176.79698364 233.89635437 176.46698364 233.21635437 176.12698364 C233.21635437 175.46698364 233.21635437 174.80698364 233.21635437 174.12698364 C230.24635437 173.46698364 227.27635437 172.80698364 224.21635437 172.12698364 C224.21635437 171.46698364 224.21635437 170.80698364 224.21635437 170.12698364 C223.04666642 170.12882723 221.87697847 170.13067081 220.67184544 170.13257027 C192.84208595 170.17598153 165.01232911 170.20891234 137.1825428 170.2291143 C133.74955871 170.23161541 130.31657469 170.23420408 126.8835907 170.23684692 C126.20020858 170.23737154 125.51682646 170.23789617 124.81273579 170.23843668 C113.77938204 170.24711513 102.74604936 170.26287083 91.71270806 170.28128923 C80.37295187 170.30005983 69.03321119 170.31096594 57.69343847 170.31516063 C51.33188054 170.31775891 44.97037021 170.32382917 38.60882759 170.33844376 C32.60970648 170.35211286 26.61065216 170.35618758 20.61151695 170.35319901 C18.42073833 170.35374502 16.22995726 170.35766647 14.0391922 170.36539459 C1.60644921 170.40706641 -10.47499433 169.94459927 -22.78364563 168.12698364 C-22.78364563 167.46698364 -22.78364563 166.80698364 -22.78364563 166.12698364 C-24.02114563 165.98260864 -25.25864563 165.83823364 -26.53364563 165.68948364 C-29.34869062 165.34009863 -32.05379533 164.92318998 -34.78364563 164.12698364 C-34.78364563 163.46698364 -34.78364563 162.80698364 -34.78364563 162.12698364 C-37.42364563 161.46698364 -40.06364563 160.80698364 -42.78364563 160.12698364 C-42.78364563 159.46698364 -42.78364563 158.80698364 -42.78364563 158.12698364 C-43.86645813 157.72479614 -43.86645813 157.72479614 -44.97114563 157.31448364 C-49.78976565 155.27995519 -53.15823513 152.86225507 -56.78364563 149.12698364 C-57.67052063 148.46698364 -58.55739563 147.80698364 -59.47114563 147.12698364 C-66.46079391 141.41788161 -75.71167235 130.23875655 -76.78364563 121.12698364 C-77.44364563 121.12698364 -78.10364563 121.12698364 -78.78364563 121.12698364 C-79.07368469 120.13118286 -79.07368469 120.13118286 -79.36958313 119.11526489 C-80.90666596 113.80058272 -80.90666596 113.80058272 -82.84614563 108.62698364 C-85.5870914 101.31779491 -86.1455187 93.6801652 -86.09614563 85.93948364 C-86.09195618 85.02964722 -86.08776672 84.11981079 -86.08345032 83.18240356 C-85.89042435 71.51562665 -83.65281125 60.77036426 -78.78364563 50.12698364 C-78.40595032 49.26588989 -78.028255 48.40479614 -77.63911438 47.51760864 C-76.70029087 45.38120462 -75.74850293 43.25172259 -74.78364563 41.12698364 C-74.12364563 41.12698364 -73.46364563 41.12698364 -72.78364563 41.12698364 C-72.55677063 40.24010864 -72.32989563 39.35323364 -72.09614563 38.43948364 C-70.57267575 34.59453585 -68.79509143 32.93310359 -65.78364563 30.12698364 C-64.7926357 28.9703602 -63.81395545 27.80308849 -62.84614563 26.62698364 C-60.07821418 23.35839275 -57.21246953 20.69860157 -53.78364563 18.12698364 C-53.12364563 18.12698364 -52.46364563 18.12698364 -51.78364563 18.12698364 C-51.78364563 17.46698364 -51.78364563 16.80698364 -51.78364563 16.12698364 C-50.13911438 14.83792114 -50.13911438 14.83792114 -47.97114563 13.50198364 C-47.26345032 13.05596802 -46.555755 12.60995239 -45.82661438 12.15042114 C-43.78364563 11.12698364 -43.78364563 11.12698364 -40.78364563 11.12698364 C-40.78364563 10.46698364 -40.78364563 9.80698364 -40.78364563 9.12698364 C-37.87764302 7.87033386 -35.98759979 7.12698364 -32.78364563 7.12698364 C-32.78364563 6.46698364 -32.78364563 5.80698364 -32.78364563 5.12698364 C-24.3550742 2.84126936 -24.3550742 2.84126936 -19.78364563 3.12698364 C-19.78364563 2.46698364 -19.78364563 1.80698364 -19.78364563 1.12698364 C-13.15761793 0.12793219 -6.69442412 -0.01375214 0 0 Z " fill="#F56FA1" transform="translate(97.78364562988281,683.8730163574219)"/>
<path d="M0 0 C0 0.66 0 1.32 0 2 C1.11375 2.3403125 1.11375 2.3403125 2.25 2.6875 C7.49712547 5.19180988 9.42728415 9.40017762 11.36230469 14.71240234 C12.47041814 18.68752602 12.48961274 22.64546255 12.5625 26.75 C12.89433637 36.53602534 13.75537823 45.69875091 17 55 C17.37531446 57.32694964 17.71917202 59.65976685 18 62 C18.66 62 19.32 62 20 62 C20.27263672 62.87011719 20.27263672 62.87011719 20.55078125 63.7578125 C22.04535034 68.40247335 23.77055906 72.64728197 26 77 C26 77.66 26 78.32 26 79 C26.66 79 27.32 79 28 79 C28.99 82.465 28.99 82.465 30 86 C30.66 86 31.32 86 32 86 C32.88517027 87.310052 33.76176885 88.62627408 34.609375 89.9609375 C40.19594067 98.1524748 46.99352342 106.90677668 55.4375 112.3125 C56.283125 112.869375 57.12875 113.42625 58 114 C58 114.66 58 115.32 58 116 C58.721875 116.268125 59.44375 116.53625 60.1875 116.8125 C62.97952917 117.99135676 65.42986186 119.40234656 68 121 C68.66 121.33 69.32 121.66 70 122 C70 122.66 70 123.32 70 124 C70.969375 124.2475 71.93875 124.495 72.9375 124.75 C77.49410178 126.03854722 81.71841403 127.99998479 86 130 C86 130.66 86 131.32 86 132 C86.73605469 132.12117187 87.47210937 132.24234375 88.23046875 132.3671875 C89.69419922 132.61855469 89.69419922 132.61855469 91.1875 132.875 C92.15042969 133.03742188 93.11335938 133.19984375 94.10546875 133.3671875 C97 134 97 134 99.41015625 135.00390625 C102.67064653 136.25794097 105.787484 136.63149644 109.25 137.0625 C115.89679715 137.89679715 115.89679715 137.89679715 117 139 C118.34364937 139.13233616 119.69350015 139.20318698 121.04296875 139.24609375 C122.28336914 139.29540039 122.28336914 139.29540039 123.54882812 139.34570312 C125.28830232 139.40621777 127.02788934 139.46358324 128.76757812 139.51757812 C136.04137143 139.81573052 141.54205556 140.82931579 147 146 C151.7157499 152.28766654 152.57173557 157.30151404 152 165 C151 168.5625 151 168.5625 150 171 C149.34 171 148.68 171 148 171 C147.814375 171.556875 147.62875 172.11375 147.4375 172.6875 C145.27798361 176.16150462 142.63854244 178.25265569 139 180 C134.72514025 180.84762943 130.47316082 181.06138115 126.125 181.25 C123.85658161 181.37686904 121.58833689 181.50689715 119.3203125 181.640625 C118.32273926 181.68735352 117.32516602 181.73408203 116.29736328 181.78222656 C114.03731019 181.7502826 114.03731019 181.7502826 113 183 C110.5022249 183.49360794 108.00894793 183.94620412 105.5 184.375 C99.42990705 185.45078942 93.81775768 186.92927269 88 189 C87.01 189 86.02 189 85 189 C85 189.66 85 190.32 85 191 C84.41992188 191.25394531 83.83984375 191.50789062 83.2421875 191.76953125 C76.03518174 194.94489517 69.42117315 198.2719351 62.953125 202.79296875 C61 204 61 204 59 204 C59 204.66 59 205.32 59 206 C57.34928604 207.02611949 55.68029994 208.02308143 54 209 C53.443125 209.556875 52.88625 210.11375 52.3125 210.6875 C51.879375 211.120625 51.44625 211.55375 51 212 C50.34 212 49.68 212 49 212 C48.34 213.32 47.68 214.64 47 216 C46.34 216 45.68 216 45 216 C44.731875 216.5775 44.46375 217.155 44.1875 217.75 C42.97070811 220.05550043 41.69666121 222.02056192 40 224 C39.34 224 38.68 224 38 224 C37.731875 224.763125 37.46375 225.52625 37.1875 226.3125 C36.03396359 228.92313504 35.01370135 230.07385089 33 232 C32.67 232.99 32.34 233.98 32 235 C31.34 235.33 30.68 235.66 30 236 C28.89475979 238.1560774 27.86299861 240.35024223 26.875 242.5625 C26.33617187 243.76003906 25.79734375 244.95757813 25.2421875 246.19140625 C24.83226562 247.11824219 24.42234375 248.04507813 24 249 C23.34 249 22.68 249 22 249 C21.34 251.97 20.68 254.94 20 258 C19.34 258 18.68 258 18 258 C17.855625 259.216875 17.71125 260.43375 17.5625 261.6875 C17.17219047 264.82670377 16.67648144 267.9075134 16 271 C15.34 271 14.68 271 14 271 C13.34 281.89 12.68 292.78 12 304 C11.34 304 10.68 304 10 304 C9.95875 305.010625 9.9175 306.02125 9.875 307.0625 C9.05770368 312.81860124 5.04091843 316.29923465 0.75 319.875 C-4.47802212 322.01373632 -9.80947711 322.49596745 -15.3125 321.25 C-21.71510162 318.27204576 -25.69732725 315.30510251 -29 309 C-29.95158535 305.19406894 -30.18656406 301.51928333 -30.31640625 297.60546875 C-30.35830078 296.40341797 -30.40019531 295.20136719 -30.44335938 293.96289062 C-30.48267578 292.71701172 -30.52199219 291.47113281 -30.5625 290.1875 C-30.62727539 288.28967773 -30.62727539 288.28967773 -30.69335938 286.35351562 C-30.7992447 283.23578111 -30.90132405 280.11796965 -31 277 C-31.66 277 -32.32 277 -33 277 C-33.33951619 275.43883181 -33.67132544 273.87598662 -34 272.3125 C-34.185625 271.44238281 -34.37125 270.57226562 -34.5625 269.67578125 C-34.98972047 267.06287036 -35.07616201 264.64186962 -35 262 C-35.66 262 -36.32 262 -37 262 C-37.99 257.05 -37.99 257.05 -39 252 C-39.66 252 -40.32 252 -41 252 C-41.66 249.36 -42.32 246.72 -43 244 C-43.66 244 -44.32 244 -45 244 C-45.99 240.535 -45.99 240.535 -47 237 C-47.66 237 -48.32 237 -49 237 C-50.3671875 234.953125 -50.3671875 234.953125 -51.875 232.25 C-53.91672486 228.59413663 -56.04304764 225.9441517 -59 223 C-59 222.34 -59 221.68 -59 221 C-59.66 221 -60.32 221 -61 221 C-62.62109375 219.3203125 -62.62109375 219.3203125 -64.4375 217.125 C-66.58400884 214.53806278 -68.16776562 212.88815626 -71 211 C-71 210.34 -71 209.68 -71 209 C-72.11181641 208.60361328 -72.11181641 208.60361328 -73.24609375 208.19921875 C-75.98430668 207.00683383 -77.79016586 205.7258141 -80.0625 203.8125 C-87.00540814 198.26281757 -94.46277969 193.59278543 -103 191 C-103 190.34 -103 189.68 -103 189 C-104.0725 188.855625 -105.145 188.71125 -106.25 188.5625 C-108.91662949 188.16250558 -111.41399729 187.72408076 -114 187 C-114 186.34 -114 185.68 -114 185 C-114.64066406 184.93941406 -115.28132813 184.87882813 -115.94140625 184.81640625 C-130.6039604 183.3960396 -130.6039604 183.3960396 -132 182 C-133.76918119 181.82007371 -135.54451887 181.69998078 -137.3203125 181.60546875 C-138.4134375 181.53650391 -139.5065625 181.46753906 -140.6328125 181.39648438 C-142.93690778 181.25859948 -145.24163014 181.13077621 -147.546875 181.01367188 C-155.07341123 180.51572188 -160.27991927 179.72825674 -165.77734375 174.21875 C-166.16019531 173.6515625 -166.54304688 173.084375 -166.9375 172.5 C-167.33839844 171.9328125 -167.73929687 171.365625 -168.15234375 170.78125 C-169 169 -169 169 -169 165 C-169.66 165 -170.32 165 -171 165 C-171.76755273 157.06862174 -169.97506805 152.2378862 -165 146 C-160.44312679 141.71751915 -156.0669635 139.98925685 -149.91796875 139.71875 C-149.15033203 139.68136719 -148.38269531 139.64398437 -147.59179688 139.60546875 C-146.79837891 139.57066406 -146.00496094 139.53585937 -145.1875 139.5 C-138.30862206 139.19376801 -131.54031381 138.81996311 -124.875 136.9375 C-121.68678973 136.16615881 -119.2375198 135.79765501 -116 136 C-116 135.34 -116 134.68 -116 134 C-114.7625 133.67 -113.525 133.34 -112.25 133 C-111.55390625 132.814375 -110.8578125 132.62875 -110.140625 132.4375 C-108 132 -108 132 -104 132 C-104 131.34 -104 130.68 -104 130 C-102.205625 129.2575 -102.205625 129.2575 -100.375 128.5 C-88.95863979 123.41403858 -77.73729005 117.02853305 -69 108 C-68.08863281 107.27941406 -67.17726563 106.55882812 -66.23828125 105.81640625 C-62.74136156 102.92191045 -60.05880685 99.59516533 -57.3125 96 C-56.84005859 95.39671875 -56.36761719 94.7934375 -55.88085938 94.171875 C-53.83081625 91.52665806 -51.97818115 88.9624536 -50.29296875 86.0625 C-49.86628906 85.381875 -49.43960938 84.70125 -49 84 C-48.34 84 -47.68 84 -47 84 C-46.90332031 83.31164062 -46.80664062 82.62328125 -46.70703125 81.9140625 C-45.8519254 78.38970358 -44.37815535 75.58253884 -42.6875 72.375 C-38.29188854 63.819557 -35.00269106 55.4271601 -33.39453125 45.8984375 C-33 44 -33 44 -32 43 C-30.80739232 36.50115236 -30.70807204 29.97559072 -30.5703125 23.3828125 C-30.31755032 16.45291619 -28.89139251 11.83708876 -25 6 C-24.34 6 -23.68 6 -23 6 C-22.67 5.01 -22.34 4.02 -22 3 C-15.35607269 -2.05516208 -7.93404251 -2.28545018 0 0 Z " fill="#002CDE" transform="translate(608,441)"/>
<path d="" fill="#FF0000" transform="translate(0,0)"/>
<path d="" fill="#FF0000" transform="translate(0,0)"/>
<path d="" fill="#000000" transform="translate(0,0)"/>
<path d="" fill="#FF0000" transform="translate(0,0)"/>
<path d="" fill="#FF0000" transform="translate(0,0)"/>
<path d="" fill="#FF0000" transform="translate(0,0)"/>
<path d="" fill="#FF0000" transform="translate(0,0)"/>
<path d="" fill="#FF0000" transform="translate(0,0)"/>
<path d="" fill="#0000FF" transform="translate(0,0)"/>
<path d="" fill="#000000" transform="translate(0,0)"/>
<path d="" fill="#000000" transform="translate(0,0)"/>
<path d="" fill="#000000" transform="translate(0,0)"/>
<path d="" fill="#FFFF00" transform="translate(0,0)"/>
<path d="" fill="#FF0000" transform="translate(0,0)"/>
<path d="" fill="#FF0000" transform="translate(0,0)"/>
<path d="" fill="#FF0000" transform="translate(0,0)"/>
<path d="" fill="#FF0000" transform="translate(0,0)"/>
<path d="" fill="#FF0000" transform="translate(0,0)"/>
<path d="" fill="#FF0000" transform="translate(0,0)"/>
<path d="" fill="#FF0000" transform="translate(0,0)"/>
<path d="" fill="#FF0000" transform="translate(0,0)"/>
<path d="" fill="#FF0000" transform="translate(0,0)"/>
<path d="" fill="#000000" transform="translate(0,0)"/>
<path d="" fill="#000000" transform="translate(0,0)"/>
<path d="" fill="#000000" transform="translate(0,0)"/>
<path d="" fill="#0000FF" transform="translate(0,0)"/>
<path d="" fill="#000000" transform="translate(0,0)"/>
<path d="" fill="#0000FF" transform="translate(0,0)"/>
<path d="" fill="#0000FF" transform="translate(0,0)"/>
<path d="" fill="#000000" transform="translate(0,0)"/>
<path d="" fill="#0000FF" transform="translate(0,0)"/>
<path d="" fill="#0000FF" transform="translate(0,0)"/>
<path d="" fill="#0000FF" transform="translate(0,0)"/>
<path d="" fill="#0000FF" transform="translate(0,0)"/>
<path d="" fill="#0000FF" transform="translate(0,0)"/>
<path d="" fill="#0000FF" transform="translate(0,0)"/>
<path d="" fill="#000000" transform="translate(0,0)"/>
<path d="" fill="#000000" transform="translate(0,0)"/>
<path d="" fill="#00FF00" transform="translate(0,0)"/>
<path d="" fill="#0000FF" transform="translate(0,0)"/>
<path d="" fill="#000000" transform="translate(0,0)"/>
<path d="" fill="#0000FF" transform="translate(0,0)"/>
<path d="" fill="#0000FF" transform="translate(0,0)"/>
<path d="" fill="#000000" transform="translate(0,0)"/>
<path d="" fill="#0000FF" transform="translate(0,0)"/>
<path d="" fill="#000000" transform="translate(0,0)"/>
<path d="" fill="#0000FF" transform="translate(0,0)"/>
<path d="" fill="#000000" transform="translate(0,0)"/>
<path d="" fill="#0000FF" transform="translate(0,0)"/>
<path d="" fill="#00FF00" transform="translate(0,0)"/>
<path d="" fill="#000000" transform="translate(0,0)"/>
<path d="" fill="#000000" transform="translate(0,0)"/>
<path d="" fill="#0000FF" transform="translate(0,0)"/>
<path d="" fill="#00FF00" transform="translate(0,0)"/>
<path d="" fill="#0000FF" transform="translate(0,0)"/>
<path d="" fill="#000000" transform="translate(0,0)"/>
<path d="" fill="#0000FF" transform="translate(0,0)"/>
<path d="" fill="#000000" transform="translate(0,0)"/>
<path d="" fill="#000000" transform="translate(0,0)"/>
<path d="" fill="#0000FF" transform="translate(0,0)"/>
<path d="" fill="#00FF00" transform="translate(0,0)"/>
<path d="" fill="#000000" transform="translate(0,0)"/>
<path d="" fill="#0000FF" transform="translate(0,0)"/>
<path d="" fill="#0000FF" transform="translate(0,0)"/>
<path d="" fill="#0000FF" transform="translate(0,0)"/>
</svg>
